<svg width="49" height="64" viewBox="0 0 49 64" fill="none" xmlns="http://www.w3.org/2000/svg">
<path d="M15.1167 59.3205C16.7864 59.3205 18.14 57.55 18.14 55.3658C18.14 53.1817 16.7864 51.4111 15.1167 51.4111C13.4469 51.4111 12.0933 53.1817 12.0933 55.3658C12.0933 57.55 13.4469 59.3205 15.1167 59.3205Z" fill="black"/>
<path d="M36.28 59.3205C37.9497 59.3205 39.3033 57.55 39.3033 55.3658C39.3033 53.1817 37.9497 51.4111 36.28 51.4111C34.6103 51.4111 33.2567 53.1817 33.2567 55.3658C33.2567 57.55 34.6103 59.3205 36.28 59.3205Z" fill="black"/>
<path d="M42.3267 13.8415H8.7979L7.55833 5.53663C7.48766 5.08327 7.29769 4.67668 7.02148 4.38765C6.74527 4.09861 6.40032 3.94542 6.04667 3.95475H0V7.90945H4.8071L10.5817 45.8746C10.6523 46.3279 10.8423 46.7345 11.1185 47.0236C11.3947 47.3126 11.7397 47.4658 12.0933 47.4565H39.3033V43.5018H13.3329L12.0933 35.5924H39.3033C39.6528 35.6035 39.9944 35.4559 40.27 35.1747C40.5456 34.8935 40.7382 34.4961 40.815 34.05L43.8383 16.2539C43.889 15.9605 43.8878 15.6558 43.8349 15.3631C43.782 15.0704 43.6787 14.7974 43.5329 14.5648C43.3871 14.3321 43.2027 14.1461 42.9937 14.0207C42.7847 13.8954 42.5565 13.8341 42.3267 13.8415ZM38.094 31.6376H11.5189L9.40257 17.7962H40.4371L38.094 31.6376Z" fill="black"/>
</svg>
