<svg width="103" height="101" viewBox="0 0 103 101" fill="none" xmlns="http://www.w3.org/2000/svg">
<g clip-path="url(#clip0_2_530)">
<path fill-rule="evenodd" clip-rule="evenodd" d="M51.5 0.0375519C79.9177 0.0375519 102.963 22.6352 102.963 50.5007C102.963 78.366 79.9177 100.964 51.5 100.964C23.0827 100.964 0.0369873 78.366 0.0369873 50.5007C0.0369873 22.6352 23.0827 0.0375519 51.5 0.0375519Z" fill="#1D1B19"/>
<path d="M51.5 0.0375546C79.9177 0.0375546 102.963 22.6352 102.963 50.5007C102.963 78.366 79.9177 100.964 51.5 100.964C23.0827 100.964 0.0369873 78.366 0.0369873 50.5007C0.0369873 22.6352 23.0827 0.0375546 51.5 0.0375546Z" stroke="#1D1B19" stroke-width="0.288" stroke-miterlimit="2.6131"/>
<path fill-rule="evenodd" clip-rule="evenodd" d="M50.3764 92.4023C46.7191 90.3544 45.7307 89.2698 44.8906 85.3666C45.2365 85.3666 45.5828 85.3666 45.9287 85.3666C46.8921 89.1978 48.6958 90.6913 52.4516 91.7273C52.4516 91.9442 52.4516 92.161 52.4516 92.4023C51.7601 92.4023 51.0679 92.4023 50.3764 92.4023ZM64.8063 86.7159C64.6827 86.3789 64.5595 86.0412 64.4607 85.7038C70.44 85.4629 71.3052 83.7282 73.3808 78.6688C73.6028 78.6688 73.8255 78.6688 74.0723 78.6688C73.6769 84.2582 69.9956 86.3304 64.8063 86.7159ZM60.6802 38.8414C60.3586 36.5525 62.2863 33.8781 63.2252 31.7819C63.5214 30.1194 63.8183 28.4569 64.1148 26.7945C64.3866 26.8427 64.6584 26.9153 64.9302 26.9872C64.5595 31.1314 63.5955 35.6369 60.6802 38.8414ZM63.7688 39.8533C64.1391 36.5284 66.6351 32.9387 67.4502 29.3969C67.6973 29.3002 67.9691 29.2276 68.2409 29.1557C67.6973 33.0589 66.3383 36.1911 64.8063 39.8533C64.4607 39.8533 64.1148 39.8533 63.7688 39.8533ZM67.2034 41.2026C67.1537 40.6966 67.1046 40.1906 67.0548 39.7088C69.5508 36.7693 70.3909 34.2154 70.9836 30.4808C71.3052 30.4808 71.6511 30.4808 71.997 30.4808C71.3052 35.0105 69.9462 37.468 67.2034 41.2026ZM48.3252 38.8414C46.8179 37.6608 45.3107 36.4802 43.8034 35.3237C41.1348 34.9864 39.7017 34.6973 39.4055 31.8301C39.6773 31.8783 39.9491 31.9506 40.2209 32.0228C40.8877 33.3239 41.4066 34.2395 43.0868 34.4081C42.988 30.5049 44.1991 27.4932 47.411 25.1079C49.2151 21.9516 52.3037 18.8917 56.0348 21.3975C56.7016 23.7342 56.7016 23.7342 56.6773 24.5778C56.4796 24.5778 56.2819 24.5778 56.0839 24.5778C55.6391 23.8791 55.1947 23.2042 54.75 22.5299C54.577 22.5299 54.404 22.5299 54.2311 22.5299C54.1322 22.819 54.0334 23.1081 53.9593 23.4213C55.1697 28.3124 55.1206 38.1909 48.3252 38.8414ZM53.1191 98.0881C51.0432 97.2449 48.9923 96.4015 46.9418 95.5827C38.3179 89.4867 25.0738 85.5593 27.8906 73.2714C29.0519 70.3561 30.5098 67.8263 32.1406 65.1037C34.6115 63.4653 39.924 62.1886 42.2714 64.4772C42.6421 66.2361 42.6421 66.2361 42.6173 70.4287C41.8517 70.9103 41.0854 71.4163 40.3441 71.9222C39.9491 71.3925 39.5534 70.8625 39.1828 70.3324C39.8746 69.6092 39.8746 69.6092 40.2453 68.1635C40.0232 67.9949 39.8005 67.8263 39.6028 67.6576C39.3066 68.4286 39.0098 69.1996 38.7133 69.9705C37.1813 69.5851 36.7616 68.7901 35.0069 68.7178C35.0069 68.9827 35.0069 69.2478 35.0069 69.537C37.2554 70.1638 38.4168 70.8139 39.4796 72.8859C42.5683 71.7539 43.0621 71.7053 44.1493 68.7659C44.6686 69.2478 45.1871 69.7537 45.7307 70.2597C45.7307 74.0424 43.8775 74.9821 41.8761 77.5842C46.5955 77.5601 50.2772 77.5842 54.8488 78.6688C54.972 79.7527 59.0247 82.5475 60.0621 84.2582C60.6555 84.1379 60.6555 84.1379 60.8284 83.7282C60.3586 83.0295 59.8891 82.3308 59.4197 81.6562C54.9967 77.801 54.9967 77.3437 57.0973 72.1631C60.9022 69.2959 63.7688 68.3563 68.3648 69.9225C68.2906 69.537 68.2409 69.1514 68.1918 68.7901C65.8444 68.1635 64.0159 68.1154 61.5697 68.0912C59.8891 66.3325 58.2336 64.5736 56.5784 62.8388C60.186 61.5378 62.533 62.9593 65.9676 62.5738C67.5494 60.3334 68.9331 58.261 70.9345 56.3817C71.8488 56.5022 72.7874 56.6226 73.7267 56.7431C72.3677 57.6828 70.7118 59.6585 71.3052 61.3936C71.4534 61.345 71.6013 61.2972 71.7743 61.2487C74.1711 55.948 75.9011 56.4058 81.9792 56.4058C84.3266 57.7069 84.3266 57.7069 85.0188 57.7069C85.0679 57.5382 85.1177 57.3695 85.1671 57.2253C83.8572 55.948 82.0784 55.5866 80.3735 54.9361C81.7325 52.262 80.4723 48.7195 79.3354 46.19C75.3575 44.913 71.1566 46.7201 67.0548 46.6719C59.6424 39.1064 51.1668 40.7207 42.8644 46.0214C36.2424 47.973 27.7425 48.1898 24.4561 41.2267C24.4561 30.8663 28.5579 26.168 37.972 21.5902C42.4941 20.9397 42.4941 20.9397 41.8761 21.1803C41.1842 22.4576 40.5912 23.2286 40.5171 24.6983C40.7645 24.6019 41.0112 24.5056 41.2583 24.4092C44.7427 18.6986 47.9302 17.2533 54.5272 17.2533C70.3412 20.7951 87.2176 28.7461 92.0606 45.154C92.876 52.1894 94.4578 58.9356 94.4578 65.971C93.049 70.838 89.5653 75.3676 83.8819 75.0062C81.7816 80.7647 75.7772 84.7402 71.3543 88.8605C66.5359 91.5346 63.4473 92.8839 60.8775 94.3777C58.329 96.518 56.6924 97.731 53.1191 98.0881Z" fill="#50B5E0"/>
<path fill-rule="evenodd" clip-rule="evenodd" d="M53.8107 77.6807C50.92 76.2591 47.1148 76.5723 43.9764 76.3558C46.7191 72.9104 48.3008 70.4043 43.8532 67.9708C43.5563 66.6219 43.2598 65.2723 42.9633 63.9231C37.9477 60.4294 32.6349 63.0801 29.5958 67.3206C28.4098 70.2597 27.2237 73.2233 26.0377 76.1872C14.6217 65.3928 12.9417 48.7921 18.2788 34.7936C20.2802 31.5409 25.5681 21.3011 29.9169 21.3011C30.5842 22.0962 31.6218 22.8431 31.6218 23.9035C25.4445 29.3484 23.517 34.119 23.3938 42.3109C21.5899 43.0096 21.5899 43.0096 19.9837 44.2384C19.9837 48.8403 28.558 50.3097 32.215 50.7196C34.8834 50.6233 37.552 50.5269 40.2209 50.4305C42.8645 53.635 46.6944 57.0081 47.9793 60.9354C45.0883 61.4655 42.7409 61.851 44.2729 65.2004C46.6203 66.0674 48.8194 64.1402 51.0189 63.4171C52.5505 63.2002 54.1075 63.0075 55.6642 62.8151C57.1962 64.4053 60.4578 66.8869 61.0261 68.9587C56.3808 70.5971 55.0465 73.2956 54.8488 77.6807C54.5029 77.6807 54.1566 77.6807 53.8107 77.6807Z" fill="white"/>
<path fill-rule="evenodd" clip-rule="evenodd" d="M45.2365 64.959C44.594 64.1639 44.6929 63.8507 44.7426 62.815C47.5344 61.0076 54.2063 60.3571 57.2452 61.4413C52.9214 62.3087 49.3135 63.3206 45.2365 64.959Z" fill="#50B5E0"/>
<path fill-rule="evenodd" clip-rule="evenodd" d="M64.8062 62.2849C63.719 61.875 62.6318 61.4654 61.5697 61.0558C60.4825 45.9008 60.4825 45.9008 60.6304 45.3225C65.029 49.5389 66.0421 55.5624 65.9432 61.3934C65.5479 61.6822 65.1769 61.9714 64.8062 62.2849Z" fill="white"/>
<path fill-rule="evenodd" clip-rule="evenodd" d="M59.2965 60.9353C55.8372 60.2125 55.2438 60.8389 55.3674 57.2489C54.8979 55.2251 54.4284 53.2253 53.9837 51.2255C52.6247 47.8764 51.5872 46.214 51.6613 45.6116C57.295 49.3944 58.9996 54.6712 60.6802 60.9353C60.2107 60.9353 59.7413 60.9353 59.2965 60.9353Z" fill="white"/>
<path fill-rule="evenodd" clip-rule="evenodd" d="M48.6715 60.5984C46.5956 57.1044 44.3968 54.3818 41.6541 51.346C41.6784 51.1292 41.7031 50.9123 41.7529 50.6955C46.7191 53.2735 49.956 55.8757 53.7616 59.9957C52.0563 60.1885 50.3514 60.3812 48.6715 60.5984Z" fill="white"/>
<path fill-rule="evenodd" clip-rule="evenodd" d="M54.1566 59.9233C52.3281 55.3937 45.6569 51.9483 41.4811 49.8039C44.347 48.3101 47.2136 46.8163 50.0796 45.3225C53.1682 46.479 54.8488 57.2007 54.1566 59.9233Z" fill="white"/>
<path fill-rule="evenodd" clip-rule="evenodd" d="M66.8575 59.6101C66.734 58.2609 66.6101 56.9116 66.5112 55.5864C69.254 56.0924 69.254 56.0924 69.5999 56.4301C68.6856 57.4898 67.7714 58.55 66.8575 59.6101Z" fill="white"/>
<path fill-rule="evenodd" clip-rule="evenodd" d="M60.3339 57.249C59.1235 51.7556 56.331 47.5392 51.4138 44.6961C54.0577 43.6119 56.2819 43.6842 59.0987 43.7324C60.3095 48.1175 60.5068 52.7197 60.3339 57.249Z" fill="white"/>
<path fill-rule="evenodd" clip-rule="evenodd" d="M79.5581 54.575C78.9157 52.0933 79.0145 49.804 79.0389 47.226C80.1017 49.274 80.6203 52.4785 79.5581 54.575Z" fill="#E31D25"/>
<path fill-rule="evenodd" clip-rule="evenodd" d="M29.7933 49.9004C26.1366 48.527 23.4678 47.6115 20.6017 45.0334C21.2686 43.6119 22.8253 42.9855 24.4312 43.0577C29.2003 48.527 34.8339 48.6475 41.7529 47.3705C46.67 45.0093 53.44 40.552 59.2965 42.6963C57.122 42.9132 54.972 43.13 52.8223 43.3469C50.6973 44.0697 45.9531 46.6959 39.7758 49.3703C38.3924 49.7076 38.3924 49.7076 29.7933 49.9004Z" fill="#50B5E0"/>
<path fill-rule="evenodd" clip-rule="evenodd" d="M63.7688 47.8765C62.7801 46.7441 60.9763 45.3466 60.6802 43.8769C62.9534 44.7684 65.5229 45.178 66.5112 47.5632C65.597 47.6596 64.6827 47.756 63.7688 47.8765Z" fill="white"/>
<path fill-rule="evenodd" clip-rule="evenodd" d="M48.6714 38.1909C47.1638 36.9139 45.6569 35.637 44.174 34.36C43.9022 28.6976 46.4967 25.879 52.0562 23.2768C52.4025 23.2286 52.7484 23.1805 53.1191 23.1323C53.3411 24.4574 53.5639 25.7823 53.8106 27.1318C52.0068 27.4451 50.7219 27.6137 49.7336 29.2762C52.8222 30.6254 52.8222 30.6255 53.8106 30.8182C53.8106 31.035 53.8106 31.2519 53.8106 31.4928C52.0562 30.9628 52.0562 30.9628 49.0911 30.8905C48.1031 33.2035 49.5853 35.7093 50.3764 37.8536C49.8077 37.95 49.2394 38.0704 48.6714 38.1909Z" fill="white"/>
<path fill-rule="evenodd" clip-rule="evenodd" d="M88.824 36.5042C87.5639 34.4803 87.5639 34.4803 85.1918 31.854C85.2408 30.4325 85.2906 29.011 85.3397 27.5894C86.8717 30.0229 89.2438 33.5406 88.824 36.5042Z" fill="#50B5E0"/>
<path fill-rule="evenodd" clip-rule="evenodd" d="M84.0058 30.8181C82.0043 28.6975 79.6813 27.18 77.3096 25.4934C77.4081 23.1322 77.5316 20.771 77.6555 18.4339C79.3852 21.3251 80.9662 25.3488 84.3517 26.4812C84.2278 27.9269 84.1046 29.3725 84.0058 30.8181Z" fill="#50B5E0"/>
<path fill-rule="evenodd" clip-rule="evenodd" d="M76.1234 24.7947C73.5784 23.2527 71.2306 21.6866 68.4385 20.5783C68.0435 13.7838 68.0435 13.7838 67.3763 9.39872C70.0693 12.7719 71.9476 15.0849 76.4694 15.4222C76.5184 18.6026 76.8153 21.6866 76.1234 24.7947Z" fill="#50B5E0"/>
<path fill-rule="evenodd" clip-rule="evenodd" d="M32.1902 23.1321C30.7075 21.2528 29.2496 20.024 27.347 18.5783C25.2715 17.9037 20.3791 17.2291 20.2062 17.0122C23.2208 15.5666 23.2208 15.5666 27.0011 14.2415C32.215 13.2051 35.6744 13.3018 37.6261 8.1939C39.0098 10.7478 43.1856 17.1806 42.9633 19.9035C38.9851 20.6745 35.8473 21.4937 32.1902 23.1321Z" fill="#50B5E0"/>
<path fill-rule="evenodd" clip-rule="evenodd" d="M67.2034 20.1204C66.4621 19.59 66.4621 19.59 57.2452 16.7713C57.0479 15.2052 56.8746 13.6388 56.7016 12.0971C55.3426 7.76023 55.3426 7.76022 55.4912 7.18163C58.5054 8.29029 62.9534 11.0611 65.8444 8.53123C67.3266 12.4826 67.3022 16.0003 67.2034 20.1204Z" fill="#50B5E0"/>
<path fill-rule="evenodd" clip-rule="evenodd" d="M43.8531 19.4458C42.4443 15.0366 40.1958 11.1579 38.0217 7.06158C41.3822 8.00124 51.8342 11.2536 53.9836 7.06158C55.4912 10.3621 56.1089 13.2296 56.5537 16.7714C50.9938 15.7594 48.424 16.6991 43.8531 19.4458Z" fill="#50B5E0"/>
<path fill-rule="evenodd" clip-rule="evenodd" d="M64.9078 49.3017C65.8269 50.6737 66.3465 52.5363 66.8379 54.6418C67.3184 52.5638 67.6863 50.4857 67.5133 48.4076C67.1437 48.3764 66.7737 48.345 66.4038 48.3135C66.0095 48.431 65.6155 48.5488 65.2215 48.6662C65.1172 48.8781 65.0125 49.0899 64.9078 49.3017Z" fill="#CF894F"/>
<path fill-rule="evenodd" clip-rule="evenodd" d="M72.0976 47.0667L74.9924 47.1373C73.7071 49.2261 71.5609 52.1646 72.9899 54.6419L73.1107 55.7944L70.4569 55.8884C69.0162 55.2362 67.827 54.9417 67.827 53.0658C67.827 52.9011 68.2131 50.4543 68.2131 50.4543C69.3569 48.1326 69.6617 47.8197 72.0976 47.0667Z" fill="#CF894F"/>
<path fill-rule="evenodd" clip-rule="evenodd" d="M76.9224 46.5964C76.432 47.0743 75.9416 47.5528 75.4508 48.0314C73.7974 51.3513 73.5729 52.2498 73.9552 55.6771C75.1876 56.0067 76.6788 55.9592 78.3459 55.6534C78.4664 55.5122 78.5872 55.3709 78.7077 55.2301C78.731 55.2029 77.7752 50.3169 77.8878 48.1488C77.9118 47.6626 77.9358 47.1764 77.9602 46.6901C77.9602 46.6901 76.9224 46.6195 76.9224 46.5964Z" fill="#CF894F"/>
</g>
<defs>
<clipPath id="clip0_2_530">
<rect width="103" height="101" fill="white"/>
</clipPath>
</defs>
</svg>
