<svg width="87" height="95" viewBox="0 0 87 95" fill="none" xmlns="http://www.w3.org/2000/svg">
<g id="hellfish-seeklogo.com 3" clip-path="url(#clip0_441_107)">
<g id="g10">
<g id="g12">
<path id="path14" fill-rule="evenodd" clip-rule="evenodd" d="M43.5 0.0353775C67.5033 0.0353775 86.9687 21.2906 86.9687 47.5008C86.9687 73.7106 67.5033 94.9661 43.5 94.9661C19.497 94.9661 0.03125 73.7106 0.03125 47.5008C0.03125 21.2906 19.497 0.0353775 43.5 0.0353775Z" fill="#1D1B19"/>
<path id="path16" d="M43.5 0.0353797C67.5033 0.0353797 86.9687 21.2906 86.9687 47.5008C86.9687 73.7106 67.5033 94.9661 43.5 94.9661C19.497 94.9661 0.03125 73.7106 0.03125 47.5008C0.03125 21.2906 19.497 0.0353797 43.5 0.0353797Z" stroke="#1D1B19" stroke-width="0.288" stroke-miterlimit="2.6131"/>
<path id="path18" fill-rule="evenodd" clip-rule="evenodd" d="M42.5511 86.9132C39.4619 84.9869 38.6271 83.9668 37.9175 80.2954C38.2097 80.2954 38.5022 80.2954 38.7943 80.2954C39.608 83.899 41.1316 85.3039 44.304 86.2782C44.304 86.4822 44.304 86.6862 44.304 86.9132C43.7199 86.9132 43.1352 86.9132 42.5511 86.9132ZM54.7395 81.5645C54.6351 81.2475 54.5311 80.93 54.4476 80.6126C59.498 80.386 60.2288 78.7543 61.982 73.9955C62.1695 73.9955 62.3577 73.9955 62.5661 73.9955C62.2321 79.2529 59.1227 81.2019 54.7395 81.5645ZM51.2543 36.5341C50.9827 34.3812 52.6109 31.8656 53.404 29.894C53.6542 28.3303 53.9049 26.7665 54.1554 25.2028C54.385 25.2482 54.6145 25.3165 54.8441 25.3841C54.531 29.2821 53.7168 33.52 51.2543 36.5341ZM53.8632 37.4859C54.176 34.3585 56.2842 30.9821 56.9727 27.6507C57.1814 27.5597 57.4109 27.4914 57.6405 27.4238C57.1814 31.0951 56.0335 34.0412 54.7395 37.4859C54.4476 37.4859 54.1554 37.4859 53.8632 37.4859ZM56.7642 38.755C56.7222 38.2791 56.6808 37.8032 56.6387 37.3499C58.747 34.5851 59.4566 32.1829 59.9572 28.6702C60.2288 28.6702 60.521 28.6702 60.8132 28.6702C60.2288 32.9307 59.0809 35.2423 56.7642 38.755ZM40.8185 36.5341C39.5454 35.4236 38.2723 34.3132 36.9992 33.2254C34.7451 32.9081 33.5346 32.6361 33.2844 29.9393C33.514 29.9846 33.7436 30.0526 33.9732 30.1206C34.5364 31.3444 34.9747 32.2056 36.3939 32.3642C36.3104 28.6929 37.3334 25.86 40.0463 23.6165C41.5702 20.6477 44.1791 17.7695 47.3306 20.1264C47.8938 22.3244 47.8938 22.3244 47.8732 23.1179C47.7062 23.1179 47.5393 23.1179 47.372 23.1179C46.9963 22.4607 46.621 21.8258 46.2453 21.1916C46.0992 21.1916 45.9531 21.1916 45.807 21.1916C45.7235 21.4635 45.64 21.7355 45.5774 22.0301C46.5998 26.6306 46.5583 35.9222 40.8185 36.5341ZM44.8678 92.2612C43.1143 91.4681 41.3821 90.6748 39.6501 89.9046C32.3658 84.1707 21.179 80.4766 23.5582 68.9188C24.5392 66.1766 25.7706 63.7971 27.148 61.2362C29.2352 59.6952 33.7224 58.4944 35.7052 60.647C36.0182 62.3014 36.0182 62.3014 35.9973 66.245C35.3506 66.6979 34.7034 67.1738 34.0772 67.6497C33.7436 67.1515 33.4094 66.6529 33.0963 66.1543C33.6807 65.4742 33.6807 65.4742 33.9937 64.1143C33.8062 63.9557 33.6181 63.7971 33.4511 63.6385C33.2009 64.3637 32.9502 65.0888 32.6997 65.814C31.4057 65.4514 31.0512 64.7036 29.5691 64.6356C29.5691 64.8849 29.5691 65.1342 29.5691 65.4062C31.4684 65.9957 32.4493 66.6073 33.347 68.5562C35.9559 67.4914 36.373 67.4457 37.2913 64.6809C37.7299 65.1342 38.1679 65.61 38.6271 66.086C38.6271 69.644 37.0618 70.5279 35.3712 72.9754C39.3576 72.9527 42.4673 72.9754 46.3288 73.9955C46.4328 75.015 49.856 77.6438 50.7322 79.2529C51.2334 79.1397 51.2334 79.1397 51.3795 78.7543C50.9827 78.0971 50.5861 77.44 50.1896 76.8054C46.4537 73.1793 46.4537 72.7491 48.228 67.8763C51.4419 65.1794 53.8632 64.2957 57.7452 65.7688C57.6826 65.4062 57.6405 65.0435 57.5991 64.7036C55.6163 64.1143 54.0719 64.0691 52.0057 64.0463C50.5861 62.392 49.1878 60.7377 47.7897 59.106C50.8369 57.8822 52.8193 59.2193 55.7204 58.8567C57.0564 56.7494 58.2252 54.8001 59.9158 53.0324C60.688 53.1457 61.4808 53.259 62.2742 53.3723C61.1263 54.2562 59.7276 56.1145 60.2288 57.7465C60.354 57.7009 60.479 57.6559 60.6251 57.6102C62.6496 52.6245 64.1108 53.0551 69.2448 53.0551C71.2275 54.2788 71.2275 54.2788 71.8122 54.2788C71.8537 54.1202 71.8957 53.9616 71.9374 53.8259C70.831 52.6245 69.3286 52.2845 67.8885 51.6726C69.0364 49.1574 67.9719 45.8254 67.0116 43.4462C63.6517 42.245 60.1033 43.9447 56.6387 43.8994C50.3777 36.7834 43.2187 38.3018 36.2061 43.2875C30.6126 45.1232 23.4331 45.3271 20.6572 38.7777C20.6572 29.0328 24.1219 24.6136 32.0736 20.3077C35.8933 19.6958 35.8933 19.6958 35.3712 19.9221C34.7868 21.1236 34.2859 21.8488 34.2233 23.2312C34.4323 23.1405 34.6407 23.0499 34.8494 22.9592C37.7925 17.5879 40.4849 16.2285 46.0571 16.2285C59.4146 19.5599 73.6694 27.0385 77.7601 42.4717C78.4489 49.0891 79.7849 55.4346 79.7849 62.0521C78.595 66.6299 75.6525 70.8905 70.8518 70.5505C69.0778 75.9669 64.0062 79.7062 60.2703 83.5818C56.2004 86.097 53.5916 87.3661 51.421 88.7713C49.2684 90.7843 47.886 91.9253 44.8678 92.2612Z" fill="#50B5E0"/>
<path id="path20" fill-rule="evenodd" clip-rule="evenodd" d="M45.4513 73.0659C43.0097 71.7288 39.7955 72.0234 37.1446 71.8198C39.4613 68.579 40.7973 66.2218 37.0406 63.9329C36.7898 62.6641 36.5394 61.3947 36.2889 60.1256C32.0524 56.8395 27.5649 59.3327 24.9979 63.3213C23.9962 66.0858 22.9943 68.8734 21.9925 71.6612C12.3499 61.508 10.9309 45.8935 15.4389 32.7266C17.1294 29.6672 21.5959 20.0356 25.2691 20.0356C25.8328 20.7835 26.7092 21.486 26.7092 22.4835C21.4915 27.6049 19.8634 32.0921 19.7594 39.7973C18.2357 40.4545 18.2357 40.4545 16.879 41.6103C16.879 45.9389 24.1213 47.321 27.2103 47.7065C29.4641 47.6159 31.7182 47.5252 33.9725 47.4346C36.2054 50.4487 39.4404 53.6215 40.5257 57.3154C38.0838 57.814 36.1011 58.1766 37.3951 61.327C39.3778 62.1426 41.2353 60.3299 43.0931 59.6497C44.3869 59.4457 45.702 59.2644 47.0169 59.0834C48.3109 60.5792 51.0658 62.9134 51.5459 64.8621C47.6221 66.4031 46.4951 68.9414 46.3281 73.0659C46.0359 73.0659 45.7435 73.0659 45.4513 73.0659Z" fill="white"/>
<path id="path22" fill-rule="evenodd" clip-rule="evenodd" d="M38.2091 61.1001C37.6664 60.3522 37.7499 60.0576 37.792 59.0835C40.1501 57.3834 45.7855 56.7716 48.3524 57.7914C44.7002 58.6072 41.6528 59.559 38.2091 61.1001Z" fill="#50B5E0"/>
<path id="path24" fill-rule="evenodd" clip-rule="evenodd" d="M54.7397 58.585C53.8214 58.1994 52.9031 57.8141 52.0059 57.4289C51.0876 43.1741 51.0876 43.1741 51.2126 42.6302C54.9279 46.5962 55.7836 52.2618 55.7001 57.7465C55.3662 58.0181 55.0528 58.29 54.7397 58.585Z" fill="white"/>
<path id="path26" fill-rule="evenodd" clip-rule="evenodd" d="M50.0851 57.3154C47.1632 56.6356 46.662 57.2248 46.7663 53.8481C46.3698 51.9444 45.9732 50.0634 45.5976 48.1824C44.4496 45.0323 43.5734 43.4686 43.636 42.9021C48.3945 46.4601 49.8344 51.4235 51.2539 57.3154C50.8573 57.3154 50.4608 57.3154 50.0851 57.3154Z" fill="white"/>
<path id="path28" fill-rule="evenodd" clip-rule="evenodd" d="M41.1109 56.9985C39.3575 53.7122 37.5003 51.1513 35.1836 48.2958C35.2042 48.0919 35.225 47.8879 35.2671 47.6839C39.4619 50.1088 42.1959 52.5564 45.4104 56.4317C43.97 56.613 42.5299 56.7943 41.1109 56.9985Z" fill="white"/>
<path id="path30" fill-rule="evenodd" clip-rule="evenodd" d="M45.7436 56.3638C44.1992 52.1032 38.5643 48.8625 35.0371 46.8455C37.4579 45.4404 39.8792 44.0354 42.2999 42.6303C44.9088 43.7181 46.3283 53.8029 45.7436 56.3638Z" fill="white"/>
<path id="path32" fill-rule="evenodd" clip-rule="evenodd" d="M56.4722 56.0691C56.3678 54.8 56.2632 53.5309 56.1797 52.2845C58.4964 52.7604 58.4964 52.7604 58.7886 53.078C58.0163 54.0748 57.2441 55.0719 56.4722 56.0691Z" fill="white"/>
<path id="path34" fill-rule="evenodd" clip-rule="evenodd" d="M50.9612 53.8481C49.9388 48.6811 47.5801 44.7152 43.4268 42.041C45.66 41.0212 47.5386 41.0892 49.9179 41.1345C50.9406 45.2591 51.1073 49.5879 50.9612 53.8481Z" fill="white"/>
<path id="path36" fill-rule="evenodd" clip-rule="evenodd" d="M67.1997 51.333C66.657 48.9988 66.7405 46.8455 66.7611 44.4206C67.6589 46.3469 68.0969 49.3611 67.1997 51.333Z" fill="#E31D25"/>
<path id="path38" fill-rule="evenodd" clip-rule="evenodd" d="M25.1651 46.936C22.0765 45.6443 19.8223 44.7831 17.4014 42.3582C17.9647 41.0211 19.2795 40.4319 20.636 40.4999C24.6643 45.6443 29.4228 45.7576 35.2669 44.5565C39.4203 42.3355 45.1386 38.143 50.0853 40.1599C48.2487 40.3639 46.4326 40.5679 44.6168 40.7718C42.8219 41.4517 38.8147 43.9219 33.597 46.4375C32.4285 46.7547 32.4285 46.7547 25.1651 46.936Z" fill="#50B5E0"/>
<path id="path40" fill-rule="evenodd" clip-rule="evenodd" d="M53.8628 45.0325C53.0276 43.9673 51.5041 42.6529 51.2539 41.2705C53.174 42.109 55.3443 42.4943 56.1792 44.7379C55.4069 44.8285 54.6347 44.9192 53.8628 45.0325Z" fill="white"/>
<path id="path42" fill-rule="evenodd" clip-rule="evenodd" d="M41.111 35.9221C39.8376 34.721 38.5648 33.5199 37.3122 32.3188C37.0826 26.9928 39.2741 24.3416 43.97 21.894C44.2625 21.8487 44.5547 21.8034 44.8678 21.758C45.0553 23.0045 45.2435 24.2506 45.4519 25.52C43.9283 25.8146 42.843 25.9733 42.0082 27.537C44.6171 28.8061 44.617 28.8061 45.4519 28.9874C45.4519 29.1913 45.4519 29.3953 45.4519 29.6219C43.97 29.1234 43.97 29.1234 41.4655 29.0554C40.631 31.231 41.883 33.5879 42.5511 35.6048C42.0708 35.6955 41.5908 35.8088 41.111 35.9221Z" fill="white"/>
<path id="path44" fill-rule="evenodd" clip-rule="evenodd" d="M75.026 34.3357C73.9616 32.432 73.9616 32.432 71.958 29.9618C71.9995 28.6247 72.0415 27.2877 72.0829 25.9506C73.3769 28.2395 75.3806 31.5482 75.026 34.3357Z" fill="#50B5E0"/>
<path id="path46" fill-rule="evenodd" clip-rule="evenodd" d="M70.9568 28.9873C69.2663 26.9927 67.3041 25.5653 65.3008 23.9789C65.384 21.758 65.4883 19.537 65.593 17.3388C67.0539 20.0583 68.3894 23.8429 71.249 24.908C71.1444 26.2678 71.0403 27.6276 70.9568 28.9873Z" fill="#50B5E0"/>
<path id="path48" fill-rule="evenodd" clip-rule="evenodd" d="M64.2985 23.3218C62.1488 21.8714 60.1657 20.3983 57.8073 19.3558C57.4737 12.965 57.4737 12.965 56.9102 8.84043C59.1848 12.0132 60.7713 14.1888 64.5907 14.5061C64.6321 17.4975 64.8829 20.3983 64.2985 23.3218Z" fill="#50B5E0"/>
<path id="path50" fill-rule="evenodd" clip-rule="evenodd" d="M27.1898 21.7581C25.9374 19.9904 24.706 18.8346 23.0989 17.4748C21.3459 16.8403 17.2135 16.2057 17.0674 16.0018C19.6138 14.642 19.6138 14.642 22.8068 13.3956C27.2107 12.4208 30.1327 12.5117 31.7813 7.70729C32.95 10.1095 36.4772 16.1601 36.2894 18.7213C32.9292 19.4465 30.2788 20.217 27.1898 21.7581Z" fill="#50B5E0"/>
<path id="path52" fill-rule="evenodd" clip-rule="evenodd" d="M56.7639 18.9253C56.1377 18.4264 56.1377 18.4264 48.3526 15.7752C48.1859 14.3021 48.0395 12.8288 47.8934 11.3787C46.7455 7.29942 46.7455 7.29942 46.871 6.7552C49.417 7.79799 53.1741 10.4042 55.616 8.02462C56.8679 11.7413 56.8474 15.05 56.7639 18.9253Z" fill="#50B5E0"/>
<path id="path54" fill-rule="evenodd" clip-rule="evenodd" d="M37.0408 18.2905C35.8508 14.1433 33.9516 10.4949 32.1152 6.642C34.9537 7.52584 43.7821 10.585 45.5976 6.642C46.871 9.74645 47.3928 12.4436 47.7685 15.775C43.0722 14.8232 40.9016 15.707 37.0408 18.2905Z" fill="#50B5E0"/>
<path id="path56" fill-rule="evenodd" clip-rule="evenodd" d="M54.8252 46.3729C55.6015 47.6634 56.0403 49.4153 56.4554 51.3958C56.8613 49.4411 57.172 47.4865 57.0259 45.5318C56.7137 45.5026 56.4012 45.473 56.0888 45.4434C55.7557 45.5539 55.4229 45.6647 55.0901 45.7751C55.002 45.9744 54.9136 46.1736 54.8252 46.3729Z" fill="#CF894F"/>
<path id="path58" fill-rule="evenodd" clip-rule="evenodd" d="M60.8982 44.2707L63.3433 44.3371C62.2577 46.3019 60.4449 49.0657 61.6519 51.3959L61.7539 52.4799L59.5123 52.5684C58.2954 51.9549 57.291 51.6779 57.291 49.9134C57.291 49.7585 57.6171 47.457 57.6171 47.457C58.5833 45.2732 58.8407 44.9789 60.8982 44.2707Z" fill="#CF894F"/>
<path id="path60" fill-rule="evenodd" clip-rule="evenodd" d="M64.9731 43.8286C64.5589 44.278 64.1447 44.7281 63.7302 45.1783C62.3335 48.301 62.144 49.1461 62.4669 52.3698C63.5078 52.6799 64.7673 52.6352 66.1755 52.3475C66.2773 52.2146 66.3793 52.0818 66.4811 51.9493C66.5008 51.9238 65.6935 47.328 65.7886 45.2887C65.8089 44.8314 65.8291 44.374 65.8497 43.9167C65.8497 43.9167 64.9731 43.8503 64.9731 43.8286Z" fill="#CF894F"/>
</g>
</g>
</g>
<defs>
<clipPath id="clip0_441_107">
<rect width="87" height="95" fill="white"/>
</clipPath>
</defs>
</svg>
