<svg width="249" height="61" viewBox="0 0 249 61" fill="none" xmlns="http://www.w3.org/2000/svg">
<path d="M4.392 56.112C3.32533 56.112 2.45067 55.8133 1.768 55.216C1.128 54.6613 0.808001 54.0427 0.808001 53.36C0.808001 52.592 0.914667 52.016 1.128 51.632C1.384 51.2053 1.91733 50.9067 2.728 50.736C4.73333 50.2667 6.80267 49.712 8.936 49.072C11.112 48.3893 13.1387 47.6853 15.016 46.96C16.8933 46.192 18.408 45.4453 19.56 44.72C20.7547 43.9947 21.352 43.3547 21.352 42.8C21.352 42.288 20.8827 41.7973 19.944 41.328C19.0053 40.816 17.8107 40.2613 16.36 39.664C14.9093 39.0667 13.352 38.4053 11.688 37.68C10.024 36.9547 8.46667 36.1227 7.016 35.184C5.56533 34.2453 4.37067 33.1787 3.432 31.984C2.49333 30.7467 2.024 29.3387 2.024 27.76C2.024 25.2853 2.62133 22.9813 3.816 20.848C5.05333 18.672 6.65333 16.6667 8.616 14.832C10.5787 12.9973 12.7333 11.312 15.08 9.776C17.4693 8.19733 19.816 6.81066 22.12 5.616C24.4667 4.37866 26.5573 3.29066 28.392 2.352C28.9893 2.01066 29.5653 1.776 30.12 1.648C30.6747 1.52 31.1653 1.456 31.592 1.456C32.8293 1.456 33.7253 1.73333 34.28 2.288C34.8347 2.84267 35.112 3.48266 35.112 4.208C35.112 4.80533 34.792 5.50933 34.152 6.32C33.512 7.088 32.5947 7.77066 31.4 8.368C30.2053 8.96533 28.776 9.264 27.112 9.264H26.6C25.1493 10.032 23.5707 10.9493 21.864 12.016C20.1573 13.0827 18.472 14.256 16.808 15.536C15.144 16.816 13.608 18.1387 12.2 19.504C10.8347 20.8267 9.72533 22.1067 8.872 23.344C8.06133 24.5813 7.656 25.712 7.656 26.736C7.656 27.9733 8.12533 29.0827 9.064 30.064C10.0027 31.0453 11.1973 31.92 12.648 32.688C14.1413 33.456 15.6987 34.2027 17.32 34.928C18.984 35.6533 20.5413 36.4 21.992 37.168C23.4853 37.8933 24.7013 38.704 25.64 39.6C26.5787 40.4533 27.048 41.456 27.048 42.608C27.048 43.9307 26.5787 45.1893 25.64 46.384C24.744 47.5787 23.5493 48.688 22.056 49.712C20.5627 50.6933 18.92 51.5893 17.128 52.4C15.3787 53.168 13.6507 53.8293 11.944 54.384C10.2373 54.9387 8.70133 55.3653 7.336 55.664C6.01333 55.9627 5.032 56.112 4.392 56.112ZM85.3985 12.208C85.3985 14.9813 85.2278 17.9253 84.8865 21.04C84.5452 24.1547 83.9905 27.2907 83.2225 30.448C82.4545 33.5627 81.4518 36.528 80.2145 39.344C79.0198 42.1173 77.5478 44.6133 75.7985 46.832C74.0492 49.008 72.0012 50.736 69.6545 52.016C67.3505 53.296 64.7052 53.936 61.7185 53.936C57.6225 53.936 54.3798 52.6347 51.9905 50.032C49.6012 47.4293 48.4065 43.5253 48.4065 38.32C48.4065 35.376 48.7052 32.496 49.3025 29.68C49.8998 26.8213 50.6038 24.2187 51.4145 21.872C52.2252 19.5253 52.9292 17.584 53.5265 16.048C53.3558 15.7067 53.2705 15.3013 53.2705 14.832C53.2705 13.552 53.5692 12.3573 54.1665 11.248C54.7638 10.096 55.4892 9.15733 56.3425 8.432C57.2385 7.70667 58.0918 7.344 58.9025 7.344C59.5425 7.344 60.0545 7.57866 60.4385 8.048C60.8652 8.51733 61.0785 9.24267 61.0785 10.224C61.0785 11.2907 60.7158 12.7413 59.9905 14.576C59.3078 16.4107 58.5185 18.5867 57.6225 21.104C56.7265 23.5787 55.9158 26.3733 55.1905 29.488C54.5078 32.56 54.1665 35.8667 54.1665 39.408C54.1665 42.1387 54.8918 44.2293 56.3425 45.68C57.7932 47.088 59.9478 47.792 62.8065 47.792C65.1532 47.792 67.2012 47.0453 68.9505 45.552C70.6998 44.0587 72.1718 42.032 73.3665 39.472C74.6038 36.8693 75.6065 33.9253 76.3745 30.64C77.1852 27.3547 77.8038 23.92 78.2305 20.336C78.6998 16.752 79.0412 13.232 79.2545 9.776C79.3398 8.66667 79.6598 7.856 80.2145 7.344C80.8118 6.78933 81.5372 6.512 82.3905 6.512C83.0305 6.512 83.5638 6.64 83.9905 6.896C84.4598 7.10933 84.8012 7.62133 85.0145 8.432C85.2705 9.24267 85.3985 10.5013 85.3985 12.208ZM122.727 60.592C121.788 60.592 120.956 60.1227 120.231 59.184C119.548 58.2453 119.207 56.7733 119.207 54.768C119.207 53.616 120.103 50.288 121.895 44.784C123.73 39.2373 126.503 31.6427 130.215 22C128.594 24.3893 126.866 26.6933 125.031 28.912C123.196 31.088 121.319 32.88 119.399 34.288C117.522 35.696 115.687 36.4 113.895 36.4C111.036 36.4 108.818 35.5253 107.239 33.776C105.703 31.984 104.935 29.232 104.935 25.52C104.935 21.168 105.234 17.328 105.831 14C106.471 10.672 107.175 8.06933 107.943 6.192C108.754 4.31467 109.394 3.376 109.863 3.376C110.503 3.376 111.228 3.696 112.039 4.336C112.892 4.93333 113.319 5.85066 113.319 7.088C113.319 8.28266 113.042 9.98933 112.487 12.208C111.975 14.384 111.442 16.88 110.887 19.696C110.332 22.512 110.055 25.4347 110.055 28.464C110.055 29.36 110.247 30.0427 110.631 30.512C111.015 30.9387 111.506 31.152 112.103 31.152C113.682 31.152 115.346 30.5973 117.095 29.488C118.844 28.3787 120.572 26.928 122.279 25.136C123.986 23.3013 125.628 21.296 127.207 19.12C128.786 16.944 130.215 14.7893 131.495 12.656C132.818 10.48 133.927 8.496 134.823 6.704C135.975 4.35733 136.85 2.82133 137.447 2.096C138.087 1.328 138.748 0.943996 139.431 0.943996C140.199 0.943996 140.903 1.328 141.543 2.096C142.183 2.82133 142.503 3.48266 142.503 4.08C142.503 4.67733 142.055 5.936 141.159 7.856C140.263 9.776 139.111 12.464 137.703 15.92C136.295 19.3333 134.844 23.664 133.351 28.912C131.516 35.44 130.002 40.7733 128.807 44.912C127.655 49.0507 126.695 52.2507 125.927 54.512C125.202 56.816 124.583 58.3947 124.071 59.248C123.602 60.144 123.154 60.592 122.727 60.592ZM155.383 58.352C154.657 58.352 154.039 57.9467 153.527 57.136C153.015 56.368 152.759 55.472 152.759 54.448C152.759 54.0213 152.844 53.6373 153.015 53.296C153.228 52.9547 153.548 52.6987 153.975 52.528C154.444 52.3147 154.913 52.1227 155.383 51.952C155.895 51.7387 156.407 51.5253 156.919 51.312C156.791 50.9707 156.684 50.5653 156.599 50.096C156.513 49.6267 156.47 49.072 156.47 48.432C156.47 47.9627 156.556 47.0667 156.727 45.744C156.94 44.3787 157.217 42.7573 157.559 40.88C157.9 39.0027 158.263 37.0187 158.647 34.928C159.073 32.7947 159.479 30.7253 159.863 28.72C160.289 26.672 160.673 24.8373 161.015 23.216C161.783 19.7173 162.721 16.5813 163.831 13.808C164.983 11.0347 166.519 8.85867 168.439 7.28C170.401 5.65867 172.983 4.848 176.183 4.848C178.615 4.848 181.004 5.38133 183.351 6.448C185.74 7.51466 187.895 9.02933 189.815 10.992C191.777 12.912 193.335 15.1733 194.487 17.776C195.639 20.3787 196.215 23.216 196.215 26.288C196.215 28.9333 195.596 31.4507 194.359 33.84C193.121 36.1867 191.457 38.4053 189.367 40.496C187.276 42.5867 184.887 44.528 182.199 46.32C179.553 48.112 176.78 49.7547 173.879 51.248C171.02 52.6987 168.204 53.9787 165.431 55.088C162.657 56.24 160.097 57.2 157.751 57.968C157.452 58.0533 157.089 58.1387 156.663 58.224C156.236 58.3093 155.809 58.352 155.383 58.352ZM161.463 49.52C165.175 47.984 168.78 46.4053 172.279 44.784C175.82 43.1627 178.999 41.3707 181.815 39.408C184.631 37.4027 186.871 35.1627 188.535 32.688C190.199 30.2133 191.031 27.376 191.031 24.176C191.031 22.512 190.647 20.8907 189.879 19.312C189.111 17.7333 188.044 16.3253 186.679 15.088C185.356 13.808 183.841 12.8053 182.135 12.08C180.471 11.312 178.721 10.928 176.887 10.928C175.223 10.928 173.729 11.3547 172.407 12.208C171.127 13.0187 170.017 14.4693 169.079 16.56C168.14 18.6507 167.329 21.552 166.647 25.264C166.135 27.568 165.601 30.064 165.047 32.752C164.492 35.3973 163.937 37.936 163.383 40.368C162.871 42.7573 162.444 44.784 162.103 46.448C161.761 48.0693 161.569 49.008 161.527 49.264C161.527 49.3493 161.505 49.4347 161.463 49.52ZM217.33 56.112C216.263 56.112 215.388 55.8133 214.706 55.216C214.066 54.6613 213.746 54.0427 213.746 53.36C213.746 52.592 213.852 52.016 214.066 51.632C214.322 51.2053 214.855 50.9067 215.666 50.736C217.671 50.2667 219.74 49.712 221.874 49.072C224.05 48.3893 226.076 47.6853 227.954 46.96C229.831 46.192 231.346 45.4453 232.498 44.72C233.692 43.9947 234.29 43.3547 234.29 42.8C234.29 42.288 233.82 41.7973 232.882 41.328C231.943 40.816 230.748 40.2613 229.298 39.664C227.847 39.0667 226.29 38.4053 224.626 37.68C222.962 36.9547 221.404 36.1227 219.954 35.184C218.503 34.2453 217.308 33.1787 216.37 31.984C215.431 30.7467 214.962 29.3387 214.962 27.76C214.962 25.2853 215.559 22.9813 216.754 20.848C217.991 18.672 219.591 16.6667 221.554 14.832C223.516 12.9973 225.671 11.312 228.018 9.776C230.407 8.19733 232.754 6.81066 235.058 5.616C237.404 4.37866 239.495 3.29066 241.33 2.352C241.927 2.01066 242.503 1.776 243.058 1.648C243.612 1.52 244.103 1.456 244.53 1.456C245.767 1.456 246.663 1.73333 247.218 2.288C247.772 2.84267 248.05 3.48266 248.05 4.208C248.05 4.80533 247.73 5.50933 247.09 6.32C246.45 7.088 245.532 7.77066 244.338 8.368C243.143 8.96533 241.714 9.264 240.05 9.264H239.538C238.087 10.032 236.508 10.9493 234.802 12.016C233.095 13.0827 231.41 14.256 229.746 15.536C228.082 16.816 226.546 18.1387 225.138 19.504C223.772 20.8267 222.663 22.1067 221.81 23.344C220.999 24.5813 220.594 25.712 220.594 26.736C220.594 27.9733 221.063 29.0827 222.002 30.064C222.94 31.0453 224.135 31.92 225.586 32.688C227.079 33.456 228.636 34.2027 230.258 34.928C231.922 35.6533 233.479 36.4 234.93 37.168C236.423 37.8933 237.639 38.704 238.578 39.6C239.516 40.4533 239.986 41.456 239.986 42.608C239.986 43.9307 239.516 45.1893 238.578 46.384C237.682 47.5787 236.487 48.688 234.994 49.712C233.5 50.6933 231.858 51.5893 230.066 52.4C228.316 53.168 226.588 53.8293 224.882 54.384C223.175 54.9387 221.639 55.3653 220.274 55.664C218.951 55.9627 217.97 56.112 217.33 56.112Z" fill="black"/>
</svg>
