<svg width="103" height="109" viewBox="0 0 103 109" fill="none" xmlns="http://www.w3.org/2000/svg">
<g clip-path="url(#clip0_1_196)">
<path fill-rule="evenodd" clip-rule="evenodd" d="M51.5 0.313248C79.9177 0.313248 102.963 24.6164 102.963 54.5849C102.963 84.5531 79.9177 108.856 51.5 108.856C23.0827 108.856 0.0369873 84.5531 0.0369873 54.5849C0.0369873 24.6164 23.0827 0.313248 51.5 0.313248Z" fill="#1D1B19"/>
<path d="M51.5 0.313249C79.9177 0.313249 102.963 24.6164 102.963 54.5849C102.963 84.5531 79.9177 108.856 51.5 108.856C23.0827 108.856 0.0369873 84.5531 0.0369873 54.5849C0.0369873 24.6164 23.0827 0.313249 51.5 0.313249Z" stroke="#1D1B19" stroke-width="0.288" stroke-miterlimit="2.6131"/>
<path fill-rule="evenodd" clip-rule="evenodd" d="M50.3764 99.6487C46.7191 97.4462 45.7307 96.2798 44.8906 92.082C45.2365 92.082 45.5828 92.082 45.9287 92.082C46.8921 96.2023 48.6958 97.8086 52.4516 98.9227C52.4516 99.1559 52.4516 99.3892 52.4516 99.6487C51.7601 99.6487 51.0679 99.6487 50.3764 99.6487ZM64.8063 93.5331C64.6827 93.1706 64.5595 92.8075 64.4607 92.4447C70.44 92.1856 71.3052 90.3199 73.3808 84.8787C73.6028 84.8787 73.8255 84.8787 74.0723 84.8787C73.6769 90.89 69.9956 93.1185 64.8063 93.5331ZM60.6802 42.0455C60.3586 39.5839 62.2863 36.7076 63.2252 34.4533C63.5214 32.6653 63.8183 30.8774 64.1148 29.0894C64.3866 29.1413 64.6584 29.2194 64.9302 29.2967C64.5595 33.7536 63.5955 38.5992 60.6802 42.0455ZM63.7688 43.1338C64.1391 39.558 66.6351 35.6974 67.4502 31.8883C67.6973 31.7843 67.9691 31.7062 68.2409 31.6288C67.6973 35.8266 66.3383 39.1952 64.8063 43.1338C64.4607 43.1338 64.1148 43.1338 63.7688 43.1338ZM67.2034 44.5849C67.1537 44.0408 67.1046 43.4966 67.0548 42.9784C69.5508 39.8171 70.3909 37.0704 70.9836 33.054C71.3052 33.054 71.6511 33.054 71.997 33.054C71.3052 37.9255 69.9462 40.5685 67.2034 44.5849ZM48.3252 42.0455C46.8179 40.7758 45.3107 39.5061 43.8034 38.2623C41.1348 37.8996 39.7017 37.5886 39.4055 34.5051C39.6773 34.5569 39.9491 34.6346 40.2209 34.7124C40.8877 36.1116 41.4066 37.0963 43.0868 37.2777C42.988 33.0799 44.1991 29.8409 47.411 27.2756C49.2151 23.8811 52.3037 20.5902 56.0348 23.2851C56.7016 25.7982 56.7016 25.7982 56.6773 26.7055C56.4796 26.7055 56.2819 26.7055 56.0839 26.7055C55.6391 25.9541 55.1947 25.2282 54.75 24.503C54.577 24.503 54.404 24.503 54.2311 24.503C54.1322 24.8139 54.0334 25.1249 53.9593 25.4617C55.1697 30.7219 55.1206 41.3459 48.3252 42.0455ZM53.1191 105.764C51.0432 104.857 48.9923 103.95 46.9418 103.069C38.3179 96.513 25.0738 92.2892 27.8906 79.074C29.0519 75.9386 30.5098 73.2179 32.1406 70.2898C34.6115 68.5278 39.924 67.1548 42.2714 69.6161C42.6421 71.5077 42.6421 71.5077 42.6173 76.0168C41.8517 76.5346 41.0854 77.0788 40.3441 77.6229C39.9491 77.0532 39.5534 76.4832 39.1828 75.9132C39.8746 75.1354 39.8746 75.1354 40.2453 73.5806C40.0232 73.3992 39.8005 73.2179 39.6028 73.0365C39.3066 73.8657 39.0098 74.6948 38.7133 75.524C37.1813 75.1094 36.7616 74.2544 35.0069 74.1767C35.0069 74.4616 35.0069 74.7467 35.0069 75.0577C37.2554 75.7318 38.4168 76.431 39.4796 78.6594C42.5683 77.442 43.0621 77.3897 44.1493 74.2284C44.6686 74.7467 45.1871 75.2908 45.7307 75.835C45.7307 79.9032 43.8775 80.9138 41.8761 83.7122C46.5955 83.6864 50.2772 83.7122 54.8488 84.8787C54.972 86.0444 59.0247 89.0502 60.0621 90.89C60.6555 90.7605 60.6555 90.7605 60.8284 90.3199C60.3586 89.5685 59.8891 88.8171 59.4197 88.0915C54.9967 83.9455 54.9967 83.4536 57.0973 77.882C60.9022 74.7985 63.7688 73.788 68.3648 75.4723C68.2906 75.0577 68.2409 74.643 68.1918 74.2544C65.8444 73.5806 64.0159 73.5289 61.5697 73.5028C59.8891 71.6113 58.2336 69.7197 56.5784 67.8541C60.186 66.4548 62.533 67.9836 65.9676 67.569C67.5494 65.1596 68.9331 62.9307 70.9345 60.9096C71.8488 61.0392 72.7874 61.1687 73.7267 61.2983C72.3677 62.3089 70.7118 64.4337 71.3052 66.2997C71.4534 66.2475 71.6013 66.196 71.7743 66.1439C74.1711 60.4432 75.9011 60.9355 81.9792 60.9355C84.3266 62.3348 84.3266 62.3348 85.0188 62.3348C85.0679 62.1534 85.1177 61.972 85.1671 61.8169C83.8572 60.4432 82.0784 60.0545 80.3735 59.3549C81.7325 56.479 80.4723 52.6692 79.3354 49.9487C75.3575 48.5754 71.1566 50.5188 67.0548 50.467C59.6424 42.3306 51.1668 44.0667 42.8644 49.7674C36.2424 51.8662 27.7425 52.0995 24.4561 44.6108C24.4561 33.4686 28.5579 28.4157 37.972 23.4924C42.4941 22.7928 42.4941 22.7928 41.8761 23.0515C41.1842 24.4252 40.5912 25.2544 40.5171 26.8351C40.7645 26.7314 41.0112 26.6278 41.2583 26.5241C44.7427 20.3826 47.9302 18.8282 54.5272 18.8282C70.3412 22.6373 87.2176 31.1883 92.0606 48.8345C92.876 56.4009 94.4578 63.6563 94.4578 71.2226C93.049 76.4569 89.5653 81.3284 83.8819 80.9397C81.7816 87.1328 75.7772 91.4083 71.3543 95.8396C66.5359 98.7155 63.4473 100.167 60.8775 101.773C58.329 104.075 56.6924 105.38 53.1191 105.764Z" fill="#50B5E0"/>
<path fill-rule="evenodd" clip-rule="evenodd" d="M53.8107 83.816C50.92 82.2872 47.1148 82.624 43.9764 82.3912C46.7191 78.6858 48.3008 75.9905 43.8532 73.3734C43.5563 71.9227 43.2598 70.4712 42.9633 69.0201C37.9477 65.2629 32.6349 68.1136 29.5958 72.6741C28.4098 75.835 27.2237 79.0223 26.0377 82.2099C14.6217 70.6008 12.9417 52.7473 18.2788 37.6923C20.2802 34.1942 25.5681 23.1815 29.9169 23.1815C30.5842 24.0366 31.6218 24.8399 31.6218 25.9804C25.4445 31.8362 23.517 36.9668 23.3938 45.7769C21.5899 46.5284 21.5899 46.5284 19.9837 47.8499C19.9837 52.7991 28.558 54.3794 32.215 54.8203C34.8834 54.7166 37.552 54.613 40.2209 54.5093C42.8645 57.9556 46.6944 61.5833 47.9793 65.807C45.0883 66.3771 42.7409 66.7917 44.2729 70.3939C46.6203 71.3263 48.8194 69.2537 51.0189 68.476C52.5505 68.2428 54.1075 68.0355 55.6642 67.8285C57.1962 69.5388 60.4578 72.2077 61.0261 74.4358C56.3808 76.1979 55.0465 79.1001 54.8488 83.816C54.5029 83.816 54.1566 83.816 53.8107 83.816Z" fill="white"/>
<path fill-rule="evenodd" clip-rule="evenodd" d="M45.2365 70.1343C44.594 69.2792 44.6929 68.9424 44.7426 67.8285C47.5344 65.8847 54.2063 65.1851 57.2452 66.3512C52.9214 67.284 49.3135 68.3723 45.2365 70.1343Z" fill="#50B5E0"/>
<path fill-rule="evenodd" clip-rule="evenodd" d="M64.8062 67.2585C63.719 66.8176 62.6318 66.3771 61.5697 65.9366C60.4825 49.6378 60.4825 49.6378 60.6304 49.016C65.029 53.5506 66.0421 60.0286 65.9432 66.2997C65.5479 66.6103 65.1769 66.9213 64.8062 67.2585Z" fill="white"/>
<path fill-rule="evenodd" clip-rule="evenodd" d="M59.2965 65.807C55.8372 65.0296 55.2438 65.7034 55.3674 61.8424C54.8979 59.6658 54.4284 57.5151 53.9837 55.3644C52.6247 51.7626 51.5872 49.9747 51.6613 49.3269C57.295 53.3951 58.9996 59.0702 60.6802 65.807C60.2107 65.807 59.7413 65.807 59.2965 65.807Z" fill="white"/>
<path fill-rule="evenodd" clip-rule="evenodd" d="M48.6715 65.4446C46.5956 61.687 44.3968 58.7589 41.6541 55.494C41.6784 55.2608 41.7031 55.0276 41.7529 54.7944C46.7191 57.567 49.956 60.3655 53.7616 64.7965C52.0563 65.0038 50.3514 65.2111 48.6715 65.4446Z" fill="white"/>
<path fill-rule="evenodd" clip-rule="evenodd" d="M54.1566 64.7187C52.3281 59.8472 45.6569 56.1418 41.4811 53.8356C44.347 52.229 47.2136 50.6225 50.0796 49.0159C53.1682 50.2597 54.8488 61.7906 54.1566 64.7187Z" fill="white"/>
<path fill-rule="evenodd" clip-rule="evenodd" d="M66.8575 64.3818C66.734 62.9308 66.6101 61.4797 66.5112 60.0545C69.254 60.5987 69.254 60.5987 69.5999 60.9618C68.6856 62.1016 67.7714 63.2417 66.8575 64.3818Z" fill="white"/>
<path fill-rule="evenodd" clip-rule="evenodd" d="M60.3339 61.8425C59.1235 55.9345 56.331 51.3999 51.4138 48.3422C54.0577 47.1762 56.2819 47.2539 59.0987 47.3057C60.3095 52.0218 60.5068 56.9713 60.3339 61.8425Z" fill="white"/>
<path fill-rule="evenodd" clip-rule="evenodd" d="M79.5581 58.9666C78.9157 56.2976 79.0145 53.8356 79.0389 51.063C80.1017 53.2655 80.6203 56.7118 79.5581 58.9666Z" fill="#E31D25"/>
<path fill-rule="evenodd" clip-rule="evenodd" d="M29.7933 53.9392C26.1366 52.4622 23.4678 51.4776 20.6017 48.705C21.2686 47.1761 22.8253 46.5024 24.4312 46.5801C29.2003 52.4622 34.8339 52.5918 41.7529 51.2184C46.67 48.679 53.44 43.8853 59.2965 46.1915C57.122 46.4247 54.972 46.6579 52.8223 46.8911C50.6973 47.6685 45.9531 50.4929 39.7758 53.3691C38.3924 53.7319 38.3924 53.7319 29.7933 53.9392Z" fill="#50B5E0"/>
<path fill-rule="evenodd" clip-rule="evenodd" d="M63.7688 51.7626C62.7801 50.5448 60.9763 49.0419 60.6802 47.4612C62.9534 48.42 65.5229 48.8605 66.5112 51.4258C65.597 51.5294 64.6827 51.6331 63.7688 51.7626Z" fill="white"/>
<path fill-rule="evenodd" clip-rule="evenodd" d="M48.6714 41.3459C47.1638 39.9726 45.6569 38.5993 44.174 37.2259C43.9022 31.1362 46.4967 28.1048 52.0562 25.3063C52.4025 25.2545 52.7484 25.2027 53.1191 25.1508C53.3411 26.576 53.5639 28.0008 53.8106 29.4523C52.0068 29.7891 50.7219 29.9705 49.7336 31.7584C52.8222 33.2095 52.8222 33.2095 53.8106 33.4168C53.8106 33.65 53.8106 33.8832 53.8106 34.1424C52.0562 33.5723 52.0562 33.5723 49.0911 33.4945C48.1031 35.9821 49.5853 38.677 50.3764 40.9832C49.8077 41.0868 49.2394 41.2164 48.6714 41.3459Z" fill="white"/>
<path fill-rule="evenodd" clip-rule="evenodd" d="M88.824 39.532C87.5639 37.3554 87.5639 37.3554 85.1918 34.531C85.2408 33.0022 85.2906 31.4734 85.3397 29.9445C86.8717 32.5617 89.2438 36.3448 88.824 39.532Z" fill="#50B5E0"/>
<path fill-rule="evenodd" clip-rule="evenodd" d="M84.0058 33.4168C82.0043 31.1362 79.6813 29.5041 77.3096 27.6902C77.4081 25.1508 77.5316 22.6114 77.6555 20.0979C79.3852 23.2074 80.9662 27.5347 84.3517 28.7526C84.2278 30.3073 84.1046 31.8621 84.0058 33.4168Z" fill="#50B5E0"/>
<path fill-rule="evenodd" clip-rule="evenodd" d="M76.1234 26.9387C73.5784 25.2803 71.2306 23.596 68.4385 22.4041C68.0435 15.0969 68.0435 15.0968 67.3763 10.3808C70.0693 14.0085 71.9476 16.4961 76.4694 16.8589C76.5184 20.2793 76.8153 23.596 76.1234 26.9387Z" fill="#50B5E0"/>
<path fill-rule="evenodd" clip-rule="evenodd" d="M32.1902 25.1508C30.7075 23.1296 29.2496 21.8081 27.347 20.2534C25.2715 19.5278 20.3791 18.8023 20.2062 18.5691C23.2208 17.0143 23.2208 17.0143 27.0011 15.5892C32.215 14.4746 35.6744 14.5786 37.6261 9.0852C39.0098 11.8319 43.1856 18.7501 42.9633 21.6785C38.9851 22.5077 35.8473 23.3887 32.1902 25.1508Z" fill="#50B5E0"/>
<path fill-rule="evenodd" clip-rule="evenodd" d="M67.2034 21.9117C66.4621 21.3413 66.4621 21.3413 57.2452 18.3099C57.0479 16.6257 56.8746 14.941 56.7016 13.283C55.3426 8.61879 55.3426 8.61879 55.4912 7.99653C58.5054 9.18886 62.9534 12.1688 65.8444 9.44798C67.3266 13.6976 67.3022 17.4808 67.2034 21.9117Z" fill="#50B5E0"/>
<path fill-rule="evenodd" clip-rule="evenodd" d="M43.8531 21.1862C42.4443 16.4443 40.1958 12.2728 38.0217 7.86736C41.3822 8.87794 51.8342 12.3757 53.9836 7.86736C55.4912 11.417 56.1089 14.5009 56.5537 18.31C50.9938 17.2217 48.424 18.2322 43.8531 21.1862Z" fill="#50B5E0"/>
<path fill-rule="evenodd" clip-rule="evenodd" d="M64.9078 53.2954C65.8269 54.7709 66.3465 56.7741 66.8379 59.0385C67.3184 56.8036 67.6863 54.5687 67.5133 52.3337C67.1437 52.3003 66.7737 52.2664 66.4038 52.2326C66.0095 52.3589 65.6155 52.4856 65.2215 52.6119C65.1172 52.8397 65.0125 53.0676 64.9078 53.2954Z" fill="#CF894F"/>
<path fill-rule="evenodd" clip-rule="evenodd" d="M72.0976 50.8917L74.9924 50.9676C73.7071 53.2141 71.5609 56.3743 72.9899 59.0386L73.1107 60.278L70.4569 60.3792C69.0162 59.6777 67.827 59.361 67.827 57.3435C67.827 57.1664 68.2131 54.5349 68.2131 54.5349C69.3569 52.0379 69.6617 51.7014 72.0976 50.8917Z" fill="#CF894F"/>
<path fill-rule="evenodd" clip-rule="evenodd" d="M76.9224 50.386C76.432 50.9 75.9416 51.4146 75.4508 51.9292C73.7974 55.4997 73.5729 56.466 73.9552 60.152C75.1876 60.5065 76.6788 60.4554 78.3459 60.1265C78.4664 59.9746 78.5872 59.8227 78.7077 59.6712C78.731 59.6421 77.7752 54.3873 77.8878 52.0556C77.9118 51.5326 77.9358 51.0097 77.9602 50.4868C77.9602 50.4868 76.9224 50.4109 76.9224 50.386Z" fill="#CF894F"/>
</g>
<defs>
<clipPath id="clip0_1_196">
<rect width="103" height="108.622" fill="white" transform="translate(0 0.272949)"/>
</clipPath>
</defs>
</svg>
