<svg width="49" height="61" viewBox="0 0 49 61" fill="none" xmlns="http://www.w3.org/2000/svg">
<path d="M48.3733 30.4749C48.3733 13.6832 37.5135 0 24.1867 0C10.8598 0 0 13.6832 0 30.4749C0 39.3127 3.02333 47.2666 7.81229 52.8435C7.81229 52.874 7.81229 52.874 7.78811 52.9045C8.02997 53.2092 8.32021 53.453 8.56208 53.7273C8.7072 53.8797 8.82813 54.0321 8.97325 54.154C9.40861 54.6111 9.89235 55.0377 10.3519 55.4644C10.5212 55.6168 10.6663 55.7387 10.8356 55.891C11.2952 56.2872 11.7789 56.6529 12.2868 56.9881C12.4561 57.11 12.6496 57.2624 12.8189 57.3843C13.3027 57.7195 13.8106 58.0243 14.3427 58.2985C14.5362 58.4204 14.7297 58.5423 14.9232 58.6338C15.4553 58.908 15.9874 59.1518 16.5195 59.3652C16.713 59.4566 16.9065 59.548 17.1 59.609C17.6805 59.8223 18.2609 60.0051 18.8414 60.188C19.0107 60.2489 19.18 60.3099 19.3735 60.3404C20.0507 60.5232 20.728 60.6451 21.4294 60.7365C21.5261 60.7365 21.6229 60.767 21.7196 60.7975C22.542 60.8889 23.3643 60.9499 24.1867 60.9499C25.009 60.9499 25.8314 60.8889 26.6295 60.7975C26.7263 60.7975 26.823 60.767 26.9198 60.7365C27.6212 60.6451 28.2984 60.5232 28.9756 60.3404C29.1449 60.3099 29.3142 60.2185 29.5077 60.188C30.0882 60.0051 30.6929 59.8528 31.2492 59.609C31.4427 59.5175 31.6362 59.4261 31.8297 59.3652C32.3618 59.1214 32.9181 58.908 33.426 58.6338C33.6195 58.5423 33.813 58.4204 34.0065 58.2985C34.5144 58.0243 35.0223 57.7195 35.5302 57.3843C35.7237 57.2624 35.893 57.11 36.0623 56.9881C36.5461 56.6224 37.0298 56.2872 37.5135 55.891C37.6828 55.7691 37.8279 55.6168 37.9972 55.4644C38.481 55.0377 38.9405 54.6111 39.3759 54.154C39.521 54.0016 39.6419 53.8492 39.7871 53.7273C40.0531 53.453 40.3192 53.1788 40.561 52.9045C40.561 52.874 40.561 52.874 40.5369 52.8435C45.35 47.2666 48.3733 39.3127 48.3733 30.4749ZM36.1349 45.621C29.5803 40.0745 18.8414 40.0745 12.2385 45.621C11.1742 46.5047 10.3035 47.5409 9.57792 48.6685C5.90155 43.9753 3.628 37.5451 3.628 30.4749C3.628 16.1822 12.8431 4.57124 24.1867 4.57124C35.5302 4.57124 44.7453 16.1822 44.7453 30.4749C44.7453 37.5451 42.4718 43.9753 38.7954 48.6685C38.094 47.5409 37.1991 46.5047 36.1349 45.621Z" fill="black"/>
<path d="M24.1867 15.0232C19.18 15.0232 15.1167 20.143 15.1167 26.4513C15.1167 32.6377 18.9623 37.6661 24.0657 37.8489H24.2834H24.4527H24.5011C29.3868 37.6356 33.2325 32.6377 33.2567 26.4513C33.2567 20.143 29.1933 15.0232 24.1867 15.0232Z" fill="black"/>
</svg>
